<?xml version="1.0" standalone="no"?>
<!DOCTYPE svg PUBLIC "-//W3C//DTD SVG 20010904//EN"
 "http://www.w3.org/TR/2001/REC-SVG-20010904/DTD/svg10.dtd">
<svg version="1.0" xmlns="http://www.w3.org/2000/svg"
 width="300.000000pt" height="300.000000pt" viewBox="0 0 300.000000 300.000000"
 preserveAspectRatio="xMidYMid meet">
<metadata>
Created by potrace 1.14, written by Peter Selinger 2001-2017
</metadata>
<g transform="translate(0.000000,300.000000) scale(0.100000,-0.100000)"
fill="#000000" stroke="none">
<path d="M1308 2949 c-106 -13 -250 -51 -360 -94 -479 -190 -824 -613 -925
-1130 -24 -127 -24 -405 1 -535 99 -512 443 -935 917 -1124 105 -42 132 -44
164 -11 24 23 25 28 25 172 l0 149 -142 -1 c-141 0 -144 0 -209 33 -82 40
-117 78 -174 192 -44 88 -82 134 -163 198 -62 49 -53 73 26 71 48 -1 80 -13
63 -23 -9 -6 -9 -11 0 -22 17 -20 32 -17 26 6 -13 51 90 -41 160 -143 18 -26
53 -62 78 -79 28 -20 41 -34 34 -39 -7 -4 -9 -14 -6 -23 8 -21 57 -22 57 -1 0
11 12 15 47 15 44 0 45 -1 29 -19 -14 -16 -15 -20 -2 -30 18 -15 56 -5 56 14
0 8 -8 19 -17 24 -15 9 -13 10 13 11 17 0 51 7 77 16 45 15 47 18 63 75 9 33
30 78 45 99 16 22 29 42 29 44 0 2 -26 7 -57 11 -87 11 -219 52 -298 93 -139
72 -248 213 -290 377 -36 137 -37 341 -4 445 19 57 67 147 98 182 l29 34 -15
54 c-18 70 -13 214 12 293 18 56 19 57 56 57 74 0 264 -77 353 -143 16 -11 30
-10 105 7 121 28 466 28 586 0 l80 -20 82 49 c96 57 230 107 290 107 42 0 42
0 59 -52 22 -73 29 -241 12 -298 l-14 -45 47 -70 c89 -134 118 -261 99 -446
-36 -363 -225 -560 -592 -619 -43 -7 -78 -16 -78 -20 0 -4 9 -15 19 -24 11
-10 30 -41 43 -69 22 -50 23 -65 28 -340 5 -289 5 -289 29 -308 32 -26 60 -24
149 12 450 179 789 564 905 1026 71 280 58 595 -34 860 -177 508 -612 886
-1139 988 -102 20 -364 28 -472 14z"/>
<path d="M600 781 c0 -22 25 -39 38 -27 8 8 -10 38 -26 44 -7 2 -12 -6 -12
-17z"/>
<path d="M650 701 c0 -24 15 -35 36 -27 12 4 13 10 4 26 -14 26 -40 26 -40 1z"/>
<path d="M722 604 c5 -25 35 -41 49 -27 9 9 9 16 -1 28 -17 21 -52 20 -48 -1z"/>
<path d="M1081 541 c-16 -10 -8 -41 11 -41 23 0 41 18 35 34 -7 18 -25 20 -46
7z"/>
</g>
</svg>
